<svg viewBox="0 0 64 64" xmlns="http://www.w3.org/2000/svg" width="32" height="32">
  <defs>
    <linearGradient id="shieldGradient" x1="0%" y1="0%" x2="100%" y2="100%">
      <stop offset="0%" style="stop-color:#3b82f6;stop-opacity:1" />
      <stop offset="100%" style="stop-color:#1e40af;stop-opacity:1" />
    </linearGradient>
  </defs>
  <!-- Shield background -->
  <path d="M32 6l18 6v14c0 10.5-6.8 20.3-18 24-11.2-3.7-18-13.5-18-24V12l18-6z" fill="url(#shieldGradient)" opacity="0.15"/>
  <!-- Shield outline -->
  <path d="M32 6l18 6v14c0 10.5-6.8 20.3-18 24-11.2-3.7-18-13.5-18-24V12l18-6z" fill="none" stroke="url(#shieldGradient)" stroke-width="2"/>
  <!-- Security elements -->
  <circle cx="24" cy="28" r="2.5" fill="url(#shieldGradient)"/>
  <circle cx="40" cy="28" r="2.5" fill="url(#shieldGradient)"/>
  <circle cx="32" cy="22" r="2.5" fill="url(#shieldGradient)"/>
  <!-- Lock symbol -->
  <rect x="28" y="34" width="8" height="6" rx="1" fill="url(#shieldGradient)"/>
  <path d="M30 34v-2a2 2 0 0 1 4 0v2" fill="none" stroke="url(#shieldGradient)" stroke-width="1.5"/>
</svg>
